<svg id="Layer_1" data-name="Layer 1" xmlns="http://www.w3.org/2000/svg" viewBox="0 0 24.73 25"><title>certification</title><path d="M12.64,8.86H3.26a.38.38,0,0,0-.37.37.37.37,0,0,0,.37.36h9.38A.36.36,0,0,0,13,9.23.37.37,0,0,0,12.64,8.86Z" transform="translate(-0.14)"/><path d="M12.64,11.44H3.26a.37.37,0,0,0-.37.36.38.38,0,0,0,.37.37h9.38A.37.37,0,0,0,13,11.8.36.36,0,0,0,12.64,11.44Z" transform="translate(-0.14)"/><path d="M12.64,14H3.26a.37.37,0,1,0,0,.73h9.38a.37.37,0,0,0,0-.73Z" transform="translate(-0.14)"/><path d="M13,17a.37.37,0,0,0-.36-.37H3.26a.38.38,0,0,0-.37.37.37.37,0,0,0,.37.36h9.38A.36.36,0,0,0,13,17Z" transform="translate(-0.14)"/><path d="M3.26,20.35a.38.38,0,0,0-.37.37.37.37,0,0,0,.37.36H8a.37.37,0,0,0,.37-.36A.38.38,0,0,0,8,20.35Z" transform="translate(-0.14)"/><path d="M16.86,4.53V3.35A.83.83,0,0,0,16,2.52H8.52a.82.82,0,0,0-.82.83V4.53a.81.81,0,0,0,.82.82h.63A.37.37,0,0,0,9.52,5a.38.38,0,0,0-.37-.37H8.52a.09.09,0,0,1-.09-.09V3.35a.09.09,0,0,1,.09-.09H16a.09.09,0,0,1,.09.09V4.53a.09.09,0,0,1-.09.09H10.86A.37.37,0,0,0,10.5,5a.36.36,0,0,0,.36.36H16A.82.82,0,0,0,16.86,4.53Z" transform="translate(-0.14)"/><path d="M19.59,22.33a.36.36,0,0,0-.36.37v.49a1.09,1.09,0,0,1-1.08,1.08H2A1.08,1.08,0,0,1,.87,23.19V5.59a1.94,1.94,0,0,1,0-.24H4.23A1.26,1.26,0,0,0,5.49,4.09V.76a.91.91,0,0,1,.23,0H18.15a1.09,1.09,0,0,1,1.08,1.08V6.69a.37.37,0,0,0,.73,0V1.81A1.81,1.81,0,0,0,18.15,0H5.72A1.81,1.81,0,0,0,4.44.53L.67,4.31A1.75,1.75,0,0,0,.14,5.59v17.6A1.81,1.81,0,0,0,2,25h16.2A1.81,1.81,0,0,0,20,23.19V22.7a.36.36,0,0,0-.37-.37ZM4.76,1.25V4.09a.53.53,0,0,1-.53.53H1.39Z" transform="translate(-0.14)"/><path d="M24.61,13.09a1.47,1.47,0,0,0-.72-2.21.72.72,0,0,1-.48-.66,1.48,1.48,0,0,0-.6-1.14,1.46,1.46,0,0,0-1.28-.22.74.74,0,0,1-.78-.26A1.46,1.46,0,0,0,19.59,8a1.44,1.44,0,0,0-1.15.57.75.75,0,0,1-.79.26,1.44,1.44,0,0,0-1.27.22,1.42,1.42,0,0,0-.6,1.14.72.72,0,0,1-.49.66,1.45,1.45,0,0,0-.89.93,1.43,1.43,0,0,0,.18,1.28.72.72,0,0,1,0,.82,1.47,1.47,0,0,0,.71,2.2.73.73,0,0,1,.49.67A1.49,1.49,0,0,0,17,18.19v3.33a.78.78,0,0,0,.4.68.8.8,0,0,0,.79,0l1.34-.83s0,0,.05,0l1.34.83a.77.77,0,0,0,1.18-.66V18.19a1.48,1.48,0,0,0,1.27-1.41.74.74,0,0,1,.48-.67,1.46,1.46,0,0,0,.72-2.2.72.72,0,0,1,0-.82Zm-3.27,8.47L20,20.73a.79.79,0,0,0-.81,0l-1.35.83a0,0,0,0,1-.07,0v-3.4a.72.72,0,0,1,.67.28,1.43,1.43,0,0,0,1.15.56,1.45,1.45,0,0,0,1.16-.56.72.72,0,0,1,.66-.28v3.4a0,0,0,0,1-.07,0ZM24,14.32a.73.73,0,0,1,.09.64.7.7,0,0,1-.44.46,1.45,1.45,0,0,0-1,1.34.74.74,0,0,1-.94.68,1.46,1.46,0,0,0-1.57.51A.74.74,0,0,1,19,18a1.43,1.43,0,0,0-1.15-.57,1.4,1.4,0,0,0-.41.06.73.73,0,0,1-.94-.68,1.47,1.47,0,0,0-1-1.34.71.71,0,0,1-.45-.46.73.73,0,0,1,.09-.64,1.46,1.46,0,0,0,0-1.65.71.71,0,0,1-.09-.63.75.75,0,0,1,.45-.47,1.46,1.46,0,0,0,1-1.33.74.74,0,0,1,.3-.57.7.7,0,0,1,.64-.11A1.44,1.44,0,0,0,19,9.05a.73.73,0,0,1,1.16,0,1.46,1.46,0,0,0,1.57.51.7.7,0,0,1,.64.11.74.74,0,0,1,.3.57,1.44,1.44,0,0,0,1,1.33.74.74,0,0,1,.44.47.71.71,0,0,1-.09.63,1.46,1.46,0,0,0,0,1.65Z" transform="translate(-0.14)"/><path d="M19.59,10.43a3.07,3.07,0,1,0,3.07,3.07,3.08,3.08,0,0,0-3.07-3.07Zm0,5.4a2.34,2.34,0,1,1,2.34-2.33A2.33,2.33,0,0,1,19.59,15.83Z" transform="translate(-0.14)"/></svg>