<svg id="Layer_1" data-name="Layer 1" xmlns="http://www.w3.org/2000/svg" viewBox="0 0 25 15"><title>gold</title><g id="Out_line" data-name="Out line"><path d="M25,19.46,23.31,14a.41.41,0,0,0-.39-.29H15l4.3-4.45a2.09,2.09,0,0,1,.32,1.12.42.42,0,0,0,.84,0A2.09,2.09,0,0,1,22.5,8.33a.41.41,0,0,0,.42-.41.42.42,0,0,0-.42-.42,2.08,2.08,0,0,1-2.08-2.08.42.42,0,0,0-.84,0,2.12,2.12,0,0,1-.31,1.1L16,5a.39.39,0,0,0-.18,0h-5a.4.4,0,0,0-.29.12L6.6,9.06a2,2,0,0,1-.35-1.14.42.42,0,0,0-.42-.42.41.41,0,0,0-.41.42A2.09,2.09,0,0,1,3.33,10a.41.41,0,0,0-.41.42.41.41,0,0,0,.41.41,2,2,0,0,1,1.15.35L1.79,13.87h0a.42.42,0,0,0-.1.17L0,19.46A.41.41,0,0,0,.29,20l.13,0H24.58a.42.42,0,0,0,.42-.42A.5.5,0,0,0,25,19.46Zm-7.63-4.88-1.41,4.59H9.73l4.43-4.59ZM20,6.92a3,3,0,0,0,1,1,2.9,2.9,0,0,0-1,1,2.9,2.9,0,0,0-1-1A3,3,0,0,0,20,6.92Zm-1.35.23a2,2,0,0,1-1.15.35.42.42,0,0,0-.42.42.41.41,0,0,0,.42.41,2.09,2.09,0,0,1,1.18.37L8.94,18.79,7.56,14.28l8.36-8.36ZM11,5.83h3.82L6.91,13.75H3.09l2-2a2,2,0,0,1,.35,1.15.41.41,0,0,0,.41.41.41.41,0,0,0,.42-.41,2.09,2.09,0,0,1,2.08-2.09.41.41,0,0,0,.42-.41A.42.42,0,0,0,8.33,10a2,2,0,0,1-1.14-.35ZM5.83,9.42a3,3,0,0,0,1,1,2.9,2.9,0,0,0-1,1,2.82,2.82,0,0,0-1-1A2.9,2.9,0,0,0,5.83,9.42ZM1,19.17l1.41-4.59H6.78l1.41,4.59Zm15.83,0,1.41-4.59h4.39L24,19.17Z" transform="translate(0 -5)"/><rect x="10.83" y="1.67" width="1.67" height="0.83"/><rect x="9.58" y="2.92" width="1.67" height="0.83"/></g></svg>