<svg xmlns="http://www.w3.org/2000/svg" xmlns:xlink="http://www.w3.org/1999/xlink" width="500" zoomAndPan="magnify" viewBox="0 0 375 225" height="300" preserveAspectRatio="xMidYMid meet" version="1.0"><defs><clipPath id="ddb1dbdd31"><path d="M 103 5.625 L 311 5.625 L 311 225 L 103 225 Z M 103 5.625 " clip-rule="nonzero"/></clipPath><clipPath id="3b46a58d6b"><path d="M 26 5.625 L 240 5.625 L 240 142 L 26 142 Z M 26 5.625 " clip-rule="nonzero"/></clipPath><clipPath id="4c71b302ef"><path d="M 264 5.625 L 343 5.625 L 343 84 L 264 84 Z M 264 5.625 " clip-rule="nonzero"/></clipPath></defs><path fill="#eedc9a" d="M 374.613281 225.375 L 90.71875 225.375 L 168.144531 141.351562 L 348.804688 141.351562 L 374.613281 225.375 " fill-opacity="1" fill-rule="nonzero"/><path fill="#eebe33" d="M 129.429688 225.375 L 0.386719 225.375 L 26.195312 141.351562 L 103.621094 141.351562 L 129.429688 225.375 " fill-opacity="1" fill-rule="nonzero"/><path fill="#eebe33" d="M 374.613281 225.375 L 245.570312 225.375 L 271.378906 141.351562 L 348.804688 141.351562 L 374.613281 225.375 " fill-opacity="1" fill-rule="nonzero"/><g clip-path="url(#ddb1dbdd31)"><path fill="#e88604" d="M 103.621094 141.351562 L 239.117188 5.625 L 310.09375 37.941406 L 129.429688 225.375 L 103.621094 141.351562 " fill-opacity="1" fill-rule="nonzero"/></g><g clip-path="url(#3b46a58d6b)"><path fill="#eedc9a" d="M 239.117188 5.625 L 161.691406 5.625 L 26.195312 141.351562 L 103.621094 141.351562 L 239.117188 5.625 " fill-opacity="1" fill-rule="nonzero"/></g><path fill="#eebe33" d="M 187.5 37.941406 L 161.691406 37.941406 L 161.691406 25.015625 L 187.5 25.015625 L 187.5 37.941406 " fill-opacity="1" fill-rule="nonzero"/><path fill="#eebe33" d="M 168.144531 57.332031 L 142.335938 57.332031 L 142.335938 44.40625 L 168.144531 44.40625 L 168.144531 57.332031 " fill-opacity="1" fill-rule="nonzero"/><path fill="#eebe33" d="M 45.550781 83.183594 C 66.933594 83.183594 84.265625 65.824219 84.265625 44.40625 C 84.265625 65.824219 101.59375 83.183594 122.976562 83.183594 C 101.59375 83.183594 84.265625 100.542969 84.265625 121.964844 C 84.265625 100.542969 66.933594 83.183594 45.550781 83.183594 " fill-opacity="1" fill-rule="nonzero"/><g clip-path="url(#4c71b302ef)"><path fill="#eebe33" d="M 264.925781 44.40625 C 286.308594 44.40625 303.640625 27.042969 303.640625 5.625 C 303.640625 27.042969 320.96875 44.40625 342.351562 44.40625 C 320.96875 44.40625 303.640625 61.765625 303.640625 83.183594 C 303.640625 61.765625 286.308594 44.40625 264.925781 44.40625 " fill-opacity="1" fill-rule="nonzero"/></g></svg>