<svg id="Layer_1" data-name="Layer 1" xmlns="http://www.w3.org/2000/svg" viewBox="0 0 22.89 25"><title>money-guarantee</title><path d="M4,19.44a.37.37,0,1,1,.37-.37A.36.36,0,0,1,4,19.44Z" transform="translate(-1.06 0)"/><path d="M23.78,13.18a1.37,1.37,0,0,0-1.84-.49L17.25,15.4a1.34,1.34,0,0,0-1.3-1H13.71a7.42,7.42,0,0,0-2.88-.76A5.6,5.6,0,0,0,6.3,16.57l-.72-.73a.37.37,0,0,0-.52,0l-.78.79-.4-.4a.36.36,0,0,0-.52,0l-2.2,2.19a.37.37,0,0,0,0,.52l6,5.95a.36.36,0,0,0,.52,0l3.23-3.23a.36.36,0,0,0,0-.52l-.71-.72H11.9a.37.37,0,0,0,0-.73H9.42L6.84,17.1c.39-.69,1.75-2.72,4-2.72,1,0,1.89.76,2.81.76H16a.61.61,0,0,1,0,1.22H11.52a.37.37,0,1,0,0,.73H16a1.34,1.34,0,0,0,1.23-.8l5.13-3a.62.62,0,0,1,.84.23.7.7,0,0,1-.27.86l-6.19,4.84a2.08,2.08,0,0,1-1.27.44H13.49a.37.37,0,0,0,0,.73h1.93a2.82,2.82,0,0,0,1.72-.59L23.31,15a1.37,1.37,0,0,0,.47-1.82ZM7.38,24.11,1.94,18.68,3.62,17l5.43,5.44Zm2.19-2.19L4.8,17.15l.52-.53,4.77,4.78Z" transform="translate(-1.06 0)"/><path d="M2.62,11.38H6a.37.37,0,0,0,0-.74H3V.73H22V4.89a.37.37,0,0,0,.73,0V.37A.36.36,0,0,0,22.39,0H2.62a.37.37,0,0,0-.37.37V11A.38.38,0,0,0,2.62,11.38Z" transform="translate(-1.06 0)"/><path d="M7.6,11.38H22.39a.37.37,0,0,0,.36-.37V6.49a.37.37,0,1,0-.73,0v4.15H7.6a.37.37,0,1,0,0,.74Z" transform="translate(-1.06 0)"/><path d="M19.35,9.86a.38.38,0,0,0,.26-.11l1.52-1.52a.35.35,0,0,0,.1-.26V3.41a.35.35,0,0,0-.1-.26L19.61,1.62a.37.37,0,0,0-.26-.1H5.66a.35.35,0,0,0-.26.1L3.88,3.15a.36.36,0,0,0-.11.26V8a.36.36,0,0,0,.11.26L5.4,9.75a.36.36,0,0,0,.26.11ZM9.83,5.69c0-1.9,1.2-3.44,2.67-3.44s2.68,1.54,2.68,3.44S14,9.12,12.5,9.12,9.83,7.58,9.83,5.69Zm9.36-3.44L20.5,3.56V7.82l-1.31,1.3H14.43a4.45,4.45,0,0,0,1.48-3.43,4.46,4.46,0,0,0-1.48-3.44ZM5.81,9.12l-1.3-1.3V3.56l1.3-1.31h4.77A4.46,4.46,0,0,0,9.1,5.69a4.45,4.45,0,0,0,1.48,3.43Z" transform="translate(-1.06 0)"/><path d="M6.8,4.56A1.13,1.13,0,1,0,7.93,5.69,1.14,1.14,0,0,0,6.8,4.56Zm0,1.52a.39.39,0,1,1,.39-.39A.38.38,0,0,1,6.8,6.08Z" transform="translate(-1.06 0)"/><path d="M18.21,6.82a1.13,1.13,0,1,0-1.13-1.13A1.13,1.13,0,0,0,18.21,6.82Zm0-1.52a.39.39,0,1,1-.4.39A.39.39,0,0,1,18.21,5.3Z" transform="translate(-1.06 0)"/><path d="M10.93,5.28h3.15a.38.38,0,0,0,.34-.23.4.4,0,0,0-.08-.4l-.76-.76a.37.37,0,0,0-.52,0,.36.36,0,0,0,0,.52l.13.13H10.93a.37.37,0,0,0,0,.74Z" transform="translate(-1.06 0)"/><path d="M14.44,6.43a.36.36,0,0,0-.36-.36H10.93a.36.36,0,0,0-.34.22.39.39,0,0,0,.08.4l.76.76a.36.36,0,0,0,.52,0,.37.37,0,0,0,0-.52l-.13-.13h2.26a.36.36,0,0,0,.36-.37Z" transform="translate(-1.06 0)"/></svg>