<svg xmlns="http://www.w3.org/2000/svg" xmlns:xlink="http://www.w3.org/1999/xlink" width="500" zoomAndPan="magnify" viewBox="0 0 375 225" height="300" preserveAspectRatio="xMidYMid meet" version="1.0"><defs><clipPath id="9a0cdef86b"><path d="M 65.457031 0 L 309 0 L 309 225 L 65.457031 225 Z M 65.457031 0 " clip-rule="nonzero"/></clipPath></defs><path fill="#f8bc32" d="M 69.992188 173.800781 L 69.882812 221.09375 L 112.128906 221.507812 L 123.445312 209.480469 L 220.75 185.832031 C 220.75 185.832031 226.804688 184.59375 236.335938 176.8125 C 245.863281 169.027344 302.171875 114.320312 302.171875 114.320312 C 302.171875 114.320312 306.261719 109.234375 304.652344 102.804688 C 303.042969 96.375 301.363281 94.457031 297.863281 92.378906 C 294.359375 90.304688 287.253906 90.253906 287.253906 90.253906 C 287.253906 90.253906 287.101562 82.210938 281.222656 77.90625 C 275.351562 73.601562 269.097656 74.328125 263.820312 77.589844 C 258.539062 80.855469 215.339844 125.457031 215.339844 125.457031 L 128.765625 125.046875 C 128.765625 125.046875 124.34375 124.21875 118.421875 128.050781 C 112.488281 131.902344 69.992188 173.800781 69.992188 173.800781 Z M 69.992188 173.800781 " fill-opacity="1" fill-rule="evenodd"/><path fill="#ffffff" d="M 285.609375 81.8125 L 279.648438 81.820312 C 279.488281 81.820312 279.328125 81.8125 279.167969 81.789062 C 279.089844 81.789062 279.015625 81.78125 278.9375 81.78125 C 277.394531 81.683594 275.855469 81.878906 274.425781 82.394531 C 273.121094 82.859375 271.890625 83.585938 270.828125 84.5625 L 224.945312 128.738281 L 224.945312 127.164062 C 224.945312 126.03125 224.417969 125.015625 223.59375 124.328125 C 222.914062 123.761719 222.019531 123.417969 221.050781 123.417969 C 220.253906 123.417969 219.515625 123.648438 218.902344 124.042969 C 221.597656 127.820312 224.394531 131.527344 227.210938 135.222656 C 227.394531 135.457031 227.578125 135.710938 227.761719 135.964844 C 229.699219 141.125 229.089844 143.976562 225.332031 146.742188 C 225.363281 146.4375 225.386719 146.132812 225.386719 145.824219 C 225.402344 143.019531 224.195312 140.457031 222.261719 138.601562 C 220.347656 136.742188 217.699219 135.597656 214.773438 135.597656 L 128.292969 135.648438 C 128.132812 135.648438 127.972656 135.640625 127.8125 135.621094 C 127.734375 135.621094 127.660156 135.613281 127.582031 135.613281 C 126.039062 135.511719 124.496094 135.710938 123.070312 136.222656 C 121.765625 136.691406 120.535156 137.414062 119.472656 138.394531 L 73.585938 182.570312 L 73.585938 180.992188 C 73.585938 179.863281 73.0625 178.84375 72.234375 178.15625 C 71.558594 177.589844 70.664062 177.246094 69.695312 177.246094 C 68.617188 177.246094 67.648438 177.667969 66.9375 178.347656 L 113.769531 133.257812 L 114.015625 133.042969 C 115.878906 131.316406 118.039062 130.03125 120.34375 129.203125 C 122.847656 128.308594 125.496094 127.945312 128.09375 128.121094 C 128.207031 128.125 128.324219 128.140625 128.4375 128.15625 L 212.925781 128.089844 L 218.171875 123.035156 C 218.394531 123.347656 218.621094 123.664062 218.851562 123.984375 L 265.125 79.425781 L 265.371094 79.210938 C 267.234375 77.484375 269.394531 76.199219 271.699219 75.375 C 274.203125 74.480469 276.855469 74.113281 279.449219 74.289062 C 279.5625 74.296875 279.679688 74.3125 279.792969 74.328125 L 279.898438 74.328125 C 280.191406 75.253906 280.695312 76.164062 281.441406 77.027344 C 282.839844 78.609375 284.230469 80.207031 285.609375 81.8125 Z M 285.609375 81.8125 " fill-opacity="1" fill-rule="evenodd"/><g clip-path="url(#9a0cdef86b)"><path fill="#303030" d="M 179.363281 38.304688 C 178.085938 39.527344 177.292969 41.222656 177.292969 43.074219 C 177.292969 44.929688 178.085938 46.621094 179.363281 47.84375 C 180.636719 49.066406 182.394531 49.832031 184.324219 49.832031 L 190.363281 49.832031 C 194.199219 49.832031 197.679688 51.339844 200.199219 53.761719 C 202.71875 56.183594 204.285156 59.542969 204.285156 63.226562 C 204.285156 66.894531 202.71875 70.246094 200.199219 72.683594 L 200.183594 72.699219 C 197.738281 75.039062 194.425781 76.507812 190.777344 76.613281 L 190.777344 81.765625 C 190.777344 83.59375 189.234375 85.078125 187.339844 85.078125 C 185.449219 85.078125 183.90625 83.59375 183.90625 81.765625 L 183.90625 76.613281 C 180.242188 76.507812 176.910156 75.039062 174.484375 72.699219 C 171.964844 70.273438 170.398438 66.917969 170.398438 63.234375 C 170.398438 61.398438 171.941406 59.914062 173.851562 59.914062 C 175.75 59.914062 177.300781 61.398438 177.300781 63.234375 C 177.300781 65.089844 178.09375 66.78125 179.371094 68.003906 C 180.644531 69.226562 182.402344 69.992188 184.332031 69.992188 L 190.371094 69.992188 C 192.3125 69.992188 194.066406 69.234375 195.335938 68.019531 L 195.351562 68.003906 C 196.617188 66.789062 197.402344 65.097656 197.402344 63.234375 C 197.402344 61.375 196.609375 59.6875 195.335938 58.464844 C 194.058594 57.238281 192.304688 56.476562 190.371094 56.476562 L 184.332031 56.476562 C 180.5 56.476562 177.019531 54.96875 174.5 52.539062 C 171.980469 50.113281 170.414062 46.757812 170.414062 43.074219 C 170.414062 39.386719 171.980469 36.03125 174.5 33.609375 C 176.925781 31.269531 180.257812 29.800781 183.921875 29.695312 L 183.921875 24.542969 C 183.921875 22.714844 185.464844 21.230469 187.355469 21.230469 C 189.25 21.230469 190.792969 22.714844 190.792969 24.542969 L 190.792969 29.695312 C 194.441406 29.800781 197.761719 31.269531 200.199219 33.609375 L 200.214844 33.625 C 202.742188 36.0625 204.296875 39.402344 204.296875 43.082031 C 204.296875 44.914062 202.757812 46.398438 200.847656 46.398438 C 198.9375 46.398438 197.394531 44.914062 197.394531 43.082031 C 197.394531 41.214844 196.609375 39.527344 195.34375 38.308594 L 195.328125 38.296875 C 194.058594 37.078125 192.304688 36.324219 190.363281 36.324219 L 184.324219 36.324219 C 182.394531 36.316406 180.636719 37.070312 179.363281 38.304688 Z M 308.929688 104.894531 C 308.929688 109.441406 307.132812 113.992188 303.539062 117.445312 L 241.863281 176.8125 C 241.769531 176.902344 241.664062 176.964844 241.566406 177.050781 C 241.535156 177.078125 241.511719 177.117188 241.480469 177.15625 C 238.761719 179.839844 235.863281 182.414062 232.898438 184.554688 C 229.785156 186.804688 226.59375 188.570312 223.445312 189.511719 L 125.75 213.171875 L 115.128906 223.808594 C 114.367188 224.570312 113.34375 224.953125 112.320312 224.953125 L 69.65625 224.960938 C 67.496094 224.960938 65.746094 223.28125 65.746094 221.199219 L 65.761719 220.863281 L 65.761719 174.601562 C 65.722656 173.59375 66.089844 172.578125 66.890625 171.804688 L 113.730469 126.71875 L 113.976562 126.507812 C 115.839844 124.777344 118 123.492188 120.304688 122.667969 C 122.808594 121.773438 125.460938 121.40625 128.054688 121.582031 C 128.132812 121.589844 128.207031 121.613281 128.285156 121.621094 L 212.886719 121.558594 L 259.492188 76.695312 C 263.082031 73.242188 267.8125 71.515625 272.53125 71.515625 L 272.53125 71.527344 C 277.257812 71.527344 281.984375 73.25 285.566406 76.695312 L 285.582031 76.695312 C 287.734375 78.769531 289.261719 81.175781 290.132812 83.761719 C 290.511719 84.878906 290.757812 86.023438 290.886719 87.1875 C 295.476562 87.277344 300.042969 88.992188 303.515625 92.339844 L 303.53125 92.355469 C 307.109375 95.804688 308.898438 100.351562 308.898438 104.894531 Z M 222.308594 123.132812 C 224.339844 124.027344 226.179688 125.261719 227.746094 126.765625 C 230.171875 129.089844 231.929688 132.078125 232.699219 135.421875 L 277.457031 92.347656 C 279.152344 90.71875 281.097656 89.488281 283.183594 88.625 C 283.144531 87.761719 283 86.910156 282.726562 86.09375 C 282.230469 84.640625 281.34375 83.257812 280.058594 82.027344 C 278 80.03125 275.265625 79.035156 272.539062 79.035156 L 272.539062 79.050781 C 269.8125 79.050781 267.082031 80.046875 265.019531 82.035156 Z M 301.125 104.894531 C 301.125 102.269531 300.085938 99.640625 298.027344 97.644531 C 295.957031 95.65625 293.222656 94.65625 290.496094 94.65625 L 290.496094 94.671875 C 287.773438 94.671875 285.039062 95.664062 282.976562 97.652344 L 230.914062 147.769531 C 230.058594 149.265625 228.988281 150.640625 227.746094 151.84375 C 224.402344 155.0625 219.789062 157.054688 214.710938 157.054688 L 154.527344 157.054688 C 152.367188 157.054688 150.617188 155.375 150.617188 153.296875 C 150.617188 151.214844 152.367188 149.535156 154.527344 149.535156 L 214.710938 149.535156 C 217.628906 149.535156 220.285156 148.378906 222.21875 146.527344 C 224.140625 144.671875 225.339844 142.117188 225.339844 139.304688 L 225.355469 139.296875 C 225.355469 136.5 224.148438 133.945312 222.21875 132.078125 L 222.21875 132.0625 C 220.300781 130.222656 217.652344 129.074219 214.726562 129.074219 L 214.710938 129.058594 L 128.246094 129.128906 C 128.085938 129.128906 127.933594 129.097656 127.78125 129.082031 C 127.695312 129.082031 127.621094 129.097656 127.535156 129.089844 C 125.992188 128.992188 124.453125 129.191406 123.023438 129.703125 C 121.71875 130.167969 120.488281 130.894531 119.429688 131.875 L 73.542969 176.046875 L 73.542969 217.445312 L 110.664062 217.445312 L 120.765625 207.332031 C 121.277344 206.765625 121.960938 206.339844 122.773438 206.148438 L 221.324219 182.277344 C 223.507812 181.597656 225.851562 180.261719 228.226562 178.554688 C 230.808594 176.699219 233.410156 174.375 235.890625 171.917969 C 235.976562 171.84375 236.066406 171.78125 236.152344 171.703125 C 236.210938 171.636719 236.265625 171.558594 236.335938 171.492188 L 298.011719 112.125 C 300.070312 110.136719 301.101562 107.515625 301.101562 104.894531 Z M 187.339844 106.316406 C 195.839844 106.316406 203.894531 104.464844 211.09375 101.15625 C 218.554688 97.730469 225.105469 92.722656 230.265625 86.589844 C 231.625 84.984375 231.371094 82.621094 229.699219 81.316406 C 228.035156 80.007812 225.578125 80.253906 224.21875 81.859375 C 219.796875 87.117188 214.171875 91.414062 207.734375 94.367188 C 201.566406 97.203125 194.640625 98.792969 187.339844 98.792969 C 174.246094 98.792969 162.390625 93.683594 153.816406 85.429688 C 145.234375 77.171875 139.929688 65.757812 139.929688 53.15625 C 139.929688 40.558594 145.234375 29.144531 153.816406 20.886719 C 162.390625 12.628906 174.246094 7.523438 187.339844 7.523438 C 200.433594 7.523438 212.285156 12.628906 220.867188 20.886719 C 229.449219 29.144531 234.753906 40.550781 234.753906 53.15625 C 234.753906 55.144531 234.625 57.050781 234.394531 58.875 L 225.027344 49.695312 C 223.515625 48.21875 221.050781 48.195312 219.515625 49.648438 C 217.980469 51.101562 217.957031 53.480469 219.46875 54.953125 L 234.785156 69.96875 C 236.296875 71.445312 238.761719 71.46875 240.296875 70.015625 L 255.894531 55.273438 C 257.429688 53.824219 257.453125 51.445312 255.941406 49.96875 C 254.429688 48.492188 251.964844 48.472656 250.429688 49.921875 L 242.367188 57.539062 C 242.496094 56.070312 242.574219 54.601562 242.574219 53.148438 C 242.574219 38.472656 236.386719 25.183594 226.394531 15.566406 C 216.398438 5.949219 202.589844 0 187.339844 0 C 172.09375 0 158.28125 5.949219 148.289062 15.574219 C 138.292969 25.191406 132.109375 38.480469 132.109375 53.15625 C 132.109375 67.835938 138.292969 81.125 148.289062 90.742188 C 158.28125 100.367188 172.085938 106.316406 187.339844 106.316406 Z M 187.339844 106.316406 " fill-opacity="1" fill-rule="nonzero"/></g></svg>