<svg xmlns="http://www.w3.org/2000/svg" xmlns:xlink="http://www.w3.org/1999/xlink" width="500" zoomAndPan="magnify" viewBox="0 0 375 225" height="300" preserveAspectRatio="xMidYMid meet" version="1.0"><path fill="#f2c23d" d="M 149.839844 62.042969 L 217.039062 62.042969 L 217.039062 129.320312 L 149.839844 129.320312 Z M 149.839844 62.042969 " fill-opacity="1" fill-rule="nonzero"/><path fill="#a68a3c" d="M 170.375 62.042969 L 170.375 95.679688 L 183.441406 88.207031 L 196.507812 95.679688 L 196.507812 62.042969 Z M 170.375 62.042969 " fill-opacity="1" fill-rule="nonzero"/><path fill="#f2de7a" d="M 258.105469 133.054688 C 258.105469 134.15625 258.050781 135.257812 257.945312 136.355469 C 257.835938 137.449219 257.675781 138.539062 257.460938 139.617188 C 257.246094 140.699219 256.976562 141.765625 256.660156 142.820312 C 256.339844 143.875 255.96875 144.910156 255.546875 145.929688 C 255.125 146.945312 254.65625 147.941406 254.136719 148.914062 C 253.617188 149.886719 253.054688 150.828125 252.441406 151.746094 C 251.832031 152.660156 251.175781 153.542969 250.476562 154.394531 C 249.78125 155.246094 249.042969 156.0625 248.265625 156.84375 C 247.484375 157.621094 246.671875 158.359375 245.820312 159.058594 C 244.96875 159.757812 244.085938 160.414062 243.171875 161.023438 C 242.257812 161.636719 241.316406 162.203125 240.34375 162.722656 C 239.375 163.242188 238.378906 163.710938 237.363281 164.132812 C 236.347656 164.554688 235.3125 164.925781 234.257812 165.246094 C 233.207031 165.566406 232.140625 165.832031 231.0625 166.046875 C 229.980469 166.261719 228.894531 166.425781 227.800781 166.53125 C 226.703125 166.640625 225.605469 166.695312 224.503906 166.695312 C 223.40625 166.695312 222.308594 166.640625 221.210938 166.53125 C 220.117188 166.425781 219.03125 166.261719 217.949219 166.046875 C 216.871094 165.832031 215.804688 165.566406 214.753906 165.246094 C 213.699219 164.925781 212.664062 164.554688 211.648438 164.132812 C 210.632812 163.710938 209.636719 163.242188 208.667969 162.722656 C 207.695312 162.203125 206.753906 161.636719 205.839844 161.023438 C 204.925781 160.414062 204.042969 159.757812 203.191406 159.058594 C 202.339844 158.359375 201.523438 157.621094 200.746094 156.84375 C 199.96875 156.0625 199.230469 155.246094 198.53125 154.394531 C 197.835938 153.542969 197.179688 152.660156 196.570312 151.746094 C 195.957031 150.828125 195.390625 149.886719 194.875 148.914062 C 194.355469 147.941406 193.886719 146.945312 193.464844 145.929688 C 193.042969 144.910156 192.671875 143.875 192.351562 142.820312 C 192.035156 141.765625 191.765625 140.699219 191.550781 139.617188 C 191.335938 138.539062 191.175781 137.449219 191.066406 136.355469 C 190.960938 135.257812 190.90625 134.15625 190.90625 133.054688 C 190.90625 131.953125 190.960938 130.855469 191.066406 129.757812 C 191.175781 128.664062 191.335938 127.574219 191.550781 126.492188 C 191.765625 125.414062 192.035156 124.347656 192.351562 123.292969 C 192.671875 122.238281 193.042969 121.203125 193.464844 120.183594 C 193.886719 119.164062 194.355469 118.171875 194.875 117.199219 C 195.390625 116.226562 195.957031 115.285156 196.570312 114.367188 C 197.179688 113.453125 197.835938 112.570312 198.53125 111.71875 C 199.230469 110.867188 199.96875 110.050781 200.746094 109.269531 C 201.523438 108.492188 202.339844 107.753906 203.191406 107.054688 C 204.042969 106.355469 204.925781 105.699219 205.839844 105.085938 C 206.753906 104.476562 207.695312 103.910156 208.667969 103.390625 C 209.636719 102.871094 210.632812 102.402344 211.648438 101.980469 C 212.664062 101.558594 213.699219 101.1875 214.753906 100.867188 C 215.804688 100.546875 216.871094 100.28125 217.949219 100.066406 C 219.03125 99.851562 220.117188 99.6875 221.210938 99.582031 C 222.308594 99.472656 223.40625 99.417969 224.503906 99.417969 C 225.605469 99.417969 226.703125 99.472656 227.800781 99.582031 C 228.894531 99.6875 229.980469 99.851562 231.0625 100.066406 C 232.140625 100.28125 233.207031 100.546875 234.257812 100.867188 C 235.3125 101.1875 236.347656 101.558594 237.363281 101.980469 C 238.378906 102.402344 239.375 102.871094 240.34375 103.390625 C 241.316406 103.910156 242.257812 104.476562 243.171875 105.085938 C 244.085938 105.699219 244.96875 106.355469 245.820312 107.054688 C 246.671875 107.753906 247.484375 108.492188 248.265625 109.269531 C 249.042969 110.050781 249.78125 110.867188 250.476562 111.71875 C 251.175781 112.570312 251.832031 113.453125 252.441406 114.367188 C 253.054688 115.285156 253.617188 116.226562 254.136719 117.199219 C 254.65625 118.171875 255.125 119.167969 255.546875 120.183594 C 255.96875 121.203125 256.339844 122.238281 256.660156 123.292969 C 256.976562 124.347656 257.246094 125.414062 257.460938 126.492188 C 257.675781 127.574219 257.835938 128.664062 257.945312 129.757812 C 258.050781 130.855469 258.105469 131.953125 258.105469 133.054688 Z M 258.105469 133.054688 " fill-opacity="1" fill-rule="nonzero"/><path fill="#303030" d="M 237.570312 127.078125 L 237.570312 125.582031 C 237.5625 124.925781 237.5 124.28125 237.378906 123.636719 C 237.261719 122.996094 237.085938 122.367188 236.855469 121.753906 C 236.628906 121.140625 236.347656 120.554688 236.015625 119.992188 C 235.6875 119.425781 235.308594 118.894531 234.886719 118.398438 C 234.464844 117.898438 234 117.441406 233.5 117.023438 C 232.996094 116.605469 232.460938 116.234375 231.894531 115.910156 C 231.328125 115.582031 230.738281 115.308594 230.125 115.085938 C 229.511719 114.863281 228.882812 114.695312 228.238281 114.582031 L 228.238281 110.632812 L 220.773438 110.632812 L 220.773438 114.582031 C 220.082031 114.699219 219.40625 114.878906 218.746094 115.121094 C 218.085938 115.363281 217.457031 115.667969 216.855469 116.027344 C 216.253906 116.390625 215.691406 116.804688 215.167969 117.273438 C 214.644531 117.742188 214.171875 118.253906 213.742188 118.8125 C 213.316406 119.371094 212.945312 119.960938 212.628906 120.589844 C 212.316406 121.21875 212.0625 121.871094 211.867188 122.546875 C 211.675781 123.222656 211.546875 123.910156 211.484375 124.609375 C 211.421875 125.308594 211.425781 126.007812 211.492188 126.707031 C 211.5625 127.40625 211.695312 128.09375 211.890625 128.765625 C 212.089844 129.441406 212.347656 130.089844 212.667969 130.714844 C 212.988281 131.339844 213.363281 131.929688 213.796875 132.484375 C 214.226562 133.039062 214.707031 133.550781 215.234375 134.011719 C 215.761719 134.476562 216.324219 134.886719 216.929688 135.246094 C 217.535156 135.601562 218.167969 135.898438 218.828125 136.136719 C 219.488281 136.375 220.164062 136.550781 220.855469 136.660156 C 221.550781 136.769531 222.246094 136.816406 222.949219 136.792969 L 226.0625 136.792969 C 226.320312 136.773438 226.578125 136.78125 226.832031 136.8125 C 227.089844 136.84375 227.339844 136.902344 227.585938 136.988281 C 227.828125 137.074219 228.0625 137.179688 228.285156 137.3125 C 228.503906 137.445312 228.710938 137.601562 228.902344 137.777344 C 229.089844 137.953125 229.261719 138.144531 229.410156 138.355469 C 229.5625 138.566406 229.6875 138.789062 229.792969 139.027344 C 229.894531 139.265625 229.972656 139.511719 230.027344 139.761719 C 230.078125 140.015625 230.105469 140.273438 230.105469 140.53125 C 230.105469 140.789062 230.078125 141.046875 230.027344 141.300781 C 229.972656 141.554688 229.894531 141.796875 229.792969 142.035156 C 229.6875 142.273438 229.5625 142.496094 229.410156 142.707031 C 229.261719 142.917969 229.089844 143.109375 228.902344 143.285156 C 228.710938 143.460938 228.503906 143.617188 228.285156 143.75 C 228.0625 143.882812 227.828125 143.992188 227.585938 144.074219 C 227.339844 144.160156 227.089844 144.21875 226.832031 144.25 C 226.578125 144.285156 226.320312 144.289062 226.0625 144.269531 L 222.949219 144.269531 C 222.433594 144.289062 221.933594 144.207031 221.449219 144.027344 C 220.96875 143.851562 220.535156 143.585938 220.15625 143.234375 C 219.777344 142.886719 219.480469 142.476562 219.265625 142.007812 C 219.046875 141.539062 218.929688 141.046875 218.90625 140.53125 L 218.90625 139.035156 L 211.4375 139.035156 L 211.4375 140.53125 C 211.445312 141.183594 211.511719 141.832031 211.632812 142.476562 C 211.75 143.117188 211.925781 143.746094 212.15625 144.359375 C 212.382812 144.972656 212.664062 145.558594 212.996094 146.121094 C 213.324219 146.6875 213.703125 147.21875 214.125 147.714844 C 214.546875 148.214844 215.011719 148.671875 215.511719 149.089844 C 216.015625 149.507812 216.550781 149.878906 217.117188 150.203125 C 217.683594 150.53125 218.273438 150.804688 218.886719 151.027344 C 219.5 151.25 220.128906 151.417969 220.773438 151.53125 L 220.773438 155.480469 L 228.238281 155.480469 L 228.238281 151.53125 C 228.929688 151.414062 229.605469 151.234375 230.265625 150.992188 C 230.921875 150.75 231.554688 150.445312 232.15625 150.085938 C 232.757812 149.722656 233.320312 149.308594 233.84375 148.839844 C 234.367188 148.371094 234.839844 147.859375 235.269531 147.300781 C 235.695312 146.742188 236.066406 146.152344 236.382812 145.523438 C 236.695312 144.894531 236.949219 144.242188 237.144531 143.566406 C 237.335938 142.890625 237.464844 142.203125 237.527344 141.503906 C 237.589844 140.804688 237.585938 140.105469 237.519531 139.40625 C 237.449219 138.707031 237.316406 138.019531 237.121094 137.347656 C 236.921875 136.671875 236.664062 136.023438 236.34375 135.398438 C 236.023438 134.773438 235.648438 134.183594 235.214844 133.628906 C 234.785156 133.074219 234.304688 132.5625 233.777344 132.101562 C 233.25 131.636719 232.6875 131.226562 232.082031 130.867188 C 231.476562 130.511719 230.84375 130.214844 230.183594 129.976562 C 229.523438 129.738281 228.847656 129.5625 228.15625 129.453125 C 227.460938 129.34375 226.765625 129.296875 226.0625 129.320312 L 222.949219 129.320312 C 222.691406 129.339844 222.433594 129.332031 222.179688 129.300781 C 221.921875 129.269531 221.671875 129.210938 221.425781 129.125 C 221.183594 129.039062 220.949219 128.929688 220.726562 128.796875 C 220.507812 128.664062 220.300781 128.511719 220.109375 128.335938 C 219.921875 128.160156 219.75 127.96875 219.601562 127.757812 C 219.449219 127.546875 219.324219 127.320312 219.21875 127.085938 C 219.117188 126.847656 219.039062 126.601562 218.984375 126.347656 C 218.933594 126.097656 218.90625 125.839844 218.90625 125.582031 C 218.90625 125.324219 218.933594 125.066406 218.984375 124.8125 C 219.039062 124.558594 219.117188 124.316406 219.21875 124.078125 C 219.324219 123.839844 219.449219 123.617188 219.601562 123.40625 C 219.75 123.195312 219.921875 123.003906 220.109375 122.828125 C 220.300781 122.652344 220.507812 122.496094 220.726562 122.363281 C 220.949219 122.230469 221.183594 122.121094 221.425781 122.039062 C 221.671875 121.953125 221.921875 121.894531 222.179688 121.863281 C 222.433594 121.828125 222.691406 121.824219 222.949219 121.84375 L 226.0625 121.84375 C 226.578125 121.824219 227.078125 121.90625 227.5625 122.082031 C 228.042969 122.261719 228.476562 122.527344 228.855469 122.878906 C 229.234375 123.226562 229.53125 123.636719 229.746094 124.105469 C 229.964844 124.574219 230.082031 125.066406 230.105469 125.582031 L 230.105469 127.078125 Z M 237.570312 127.078125 " fill-opacity="1" fill-rule="nonzero"/><path fill="#303030" d="M 303.46875 112.449219 C 303.46875 110.609375 303.421875 108.773438 303.328125 106.933594 C 303.238281 105.097656 303.097656 103.265625 302.917969 101.433594 C 302.734375 99.605469 302.507812 97.78125 302.238281 95.960938 C 301.964844 94.140625 301.652344 92.332031 301.292969 90.527344 C 300.929688 88.722656 300.527344 86.929688 300.078125 85.148438 C 299.632812 83.363281 299.140625 81.59375 298.605469 79.832031 C 298.070312 78.074219 297.496094 76.328125 296.875 74.597656 C 296.253906 72.863281 295.59375 71.148438 294.886719 69.453125 C 294.183594 67.753906 293.4375 66.074219 292.652344 64.410156 C 291.867188 62.75 291.039062 61.105469 290.171875 59.484375 C 289.308594 57.863281 288.402344 56.265625 287.457031 54.6875 C 286.511719 53.109375 285.527344 51.558594 284.507812 50.027344 C 283.484375 48.5 282.429688 46.996094 281.332031 45.519531 C 280.238281 44.042969 279.109375 42.59375 277.941406 41.171875 C 276.777344 39.75 275.578125 38.359375 274.34375 36.996094 C 273.109375 35.632812 271.84375 34.300781 270.546875 33 C 269.246094 31.699219 267.917969 30.433594 266.554688 29.199219 C 265.195312 27.960938 263.804688 26.761719 262.382812 25.59375 C 260.964844 24.429688 259.515625 23.296875 258.039062 22.199219 C 256.566406 21.105469 255.066406 20.046875 253.539062 19.023438 C 252.011719 18 250.460938 17.015625 248.882812 16.070312 C 247.308594 15.125 245.710938 14.21875 244.089844 13.351562 C 242.472656 12.484375 240.832031 11.65625 239.171875 10.867188 C 237.511719 10.082031 235.832031 9.335938 234.136719 8.632812 C 232.4375 7.925781 230.726562 7.265625 228.996094 6.644531 C 227.265625 6.023438 225.523438 5.445312 223.765625 4.910156 C 222.007812 4.375 220.238281 3.882812 218.457031 3.433594 C 216.675781 2.988281 214.882812 2.582031 213.082031 2.222656 C 211.28125 1.863281 209.472656 1.546875 207.65625 1.273438 C 205.839844 1.003906 204.015625 0.777344 202.1875 0.59375 C 200.359375 0.414062 198.527344 0.273438 196.695312 0.183594 C 194.859375 0.0898438 193.023438 0.0429688 191.1875 0.0429688 L 191.1875 7.515625 C 194.019531 7.515625 196.851562 7.628906 199.675781 7.859375 C 202.5 8.085938 205.3125 8.429688 208.109375 8.886719 C 210.90625 9.34375 213.679688 9.914062 216.429688 10.597656 C 219.179688 11.28125 221.898438 12.074219 224.585938 12.976562 C 227.273438 13.878906 229.917969 14.890625 232.523438 16.011719 C 235.125 17.128906 237.679688 18.351562 240.1875 19.675781 C 242.691406 21.003906 245.140625 22.425781 247.53125 23.953125 C 249.921875 25.476562 252.246094 27.097656 254.503906 28.808594 C 256.761719 30.523438 258.949219 32.324219 261.058594 34.214844 C 263.171875 36.109375 265.207031 38.082031 267.160156 40.136719 C 269.113281 42.195312 270.976562 44.324219 272.757812 46.535156 C 274.539062 48.742188 276.226562 51.019531 277.820312 53.363281 C 279.417969 55.707031 280.914062 58.113281 282.316406 60.578125 C 283.714844 63.046875 285.011719 65.566406 286.210938 68.136719 C 287.40625 70.710938 288.496094 73.328125 289.480469 75.988281 C 290.464844 78.648438 291.339844 81.34375 292.105469 84.074219 C 292.871094 86.808594 293.527344 89.566406 294.066406 92.351562 C 294.609375 95.136719 295.039062 97.9375 295.355469 100.757812 C 295.667969 103.578125 295.871094 106.402344 295.957031 109.238281 C 296.039062 112.074219 296.011719 114.910156 295.867188 117.746094 C 295.722656 120.578125 295.464844 123.402344 295.09375 126.214844 C 294.722656 129.027344 294.234375 131.820312 293.636719 134.59375 C 293.035156 137.367188 292.328125 140.109375 291.503906 142.824219 C 290.683594 145.539062 289.753906 148.21875 288.714844 150.859375 C 287.675781 153.5 286.535156 156.089844 285.285156 158.640625 C 284.035156 161.1875 282.6875 163.679688 281.238281 166.117188 C 279.785156 168.554688 278.238281 170.925781 276.597656 173.238281 C 274.953125 175.550781 273.21875 177.792969 271.394531 179.964844 C 269.570312 182.132812 267.660156 184.226562 265.664062 186.242188 C 263.671875 188.257812 261.597656 190.191406 259.449219 192.039062 C 257.296875 193.886719 255.074219 195.640625 252.78125 197.308594 C 250.488281 198.976562 248.132812 200.546875 245.710938 202.023438 L 238.179688 189.121094 L 224.503906 217.175781 L 255.632812 219.019531 L 249.476562 208.476562 C 251.523438 207.226562 253.527344 205.910156 255.488281 204.535156 C 257.453125 203.15625 259.367188 201.71875 261.238281 200.21875 C 263.109375 198.71875 264.929688 197.160156 266.699219 195.542969 C 268.472656 193.925781 270.191406 192.257812 271.855469 190.53125 C 273.519531 188.804688 275.128906 187.027344 276.679688 185.199219 C 278.230469 183.371094 279.722656 181.492188 281.152344 179.570312 C 282.585938 177.644531 283.953125 175.675781 285.261719 173.664062 C 286.566406 171.652344 287.808594 169.601562 288.984375 167.511719 C 290.160156 165.421875 291.265625 163.292969 292.308594 161.132812 C 293.347656 158.972656 294.316406 156.777344 295.21875 154.554688 C 296.117188 152.332031 296.945312 150.082031 297.703125 147.804688 C 298.460938 145.527344 299.144531 143.230469 299.753906 140.910156 C 300.363281 138.589844 300.902344 136.253906 301.363281 133.898438 C 301.824219 131.542969 302.210938 129.175781 302.519531 126.796875 C 302.832031 124.417969 303.066406 122.03125 303.222656 119.640625 C 303.382812 117.246094 303.464844 114.847656 303.46875 112.449219 Z M 303.46875 112.449219 " fill-opacity="1" fill-rule="nonzero"/><path fill="#303030" d="M 170.222656 215.28125 C 167.582031 214.742188 164.964844 214.101562 162.371094 213.359375 C 159.777344 212.617188 157.21875 211.777344 154.691406 210.835938 C 152.160156 209.898438 149.671875 208.859375 147.226562 207.730469 C 144.777344 206.597656 142.375 205.371094 140.023438 204.054688 C 137.667969 202.738281 135.371094 201.328125 133.125 199.835938 C 130.878906 198.339844 128.695312 196.757812 126.570312 195.09375 C 124.449219 193.429688 122.390625 191.6875 120.402344 189.863281 C 118.414062 188.039062 116.496094 186.144531 114.65625 184.171875 C 112.8125 182.199219 111.046875 180.160156 109.363281 178.054688 C 107.679688 175.945312 106.074219 173.777344 104.558594 171.546875 C 103.039062 169.316406 101.609375 167.027344 100.269531 164.6875 C 98.925781 162.34375 97.675781 159.953125 96.519531 157.515625 C 95.363281 155.078125 94.300781 152.597656 93.332031 150.078125 C 92.367188 147.554688 91.5 145.003906 90.730469 142.414062 C 89.960938 139.828125 89.292969 137.214844 88.722656 134.574219 C 88.15625 131.933594 87.691406 129.277344 87.328125 126.601562 C 86.964844 123.925781 86.707031 121.242188 86.550781 118.546875 C 86.394531 115.851562 86.339844 113.15625 86.394531 110.457031 C 86.445312 107.757812 86.601562 105.0625 86.863281 102.375 C 87.121094 99.6875 87.484375 97.015625 87.949219 94.355469 C 88.417969 91.695312 88.984375 89.058594 89.652344 86.445312 C 90.320312 83.828125 91.089844 81.242188 91.960938 78.6875 C 92.828125 76.132812 93.792969 73.613281 94.855469 71.132812 C 95.917969 68.648438 97.078125 66.214844 98.328125 63.820312 C 99.578125 61.429688 100.917969 59.089844 102.351562 56.800781 C 103.78125 54.511719 105.296875 52.285156 106.902344 50.113281 C 108.503906 47.941406 110.1875 45.835938 111.953125 43.796875 C 113.71875 41.753906 115.5625 39.785156 117.476562 37.886719 C 119.394531 35.988281 121.382812 34.167969 123.441406 32.421875 C 125.5 30.675781 127.621094 29.011719 129.808594 27.433594 C 131.992188 25.851562 134.238281 24.355469 136.539062 22.949219 C 138.839844 21.542969 141.191406 20.226562 143.59375 19 L 148.921875 31.191406 L 165.722656 6.824219 L 135.855469 1.292969 L 140.59375 12.136719 C 137.800781 13.546875 135.066406 15.070312 132.398438 16.710938 C 129.730469 18.347656 127.136719 20.097656 124.613281 21.953125 C 122.09375 23.808594 119.652344 25.765625 117.292969 27.828125 C 114.933594 29.886719 112.667969 32.042969 110.488281 34.292969 C 108.308594 36.542969 106.230469 38.882812 104.246094 41.308594 C 102.261719 43.730469 100.386719 46.234375 98.613281 48.816406 C 96.835938 51.398438 95.175781 54.050781 93.621094 56.773438 C 92.070312 59.496094 90.632812 62.277344 89.316406 65.117188 C 87.996094 67.960938 86.796875 70.851562 85.71875 73.792969 C 84.640625 76.734375 83.6875 79.71875 82.859375 82.738281 C 82.03125 85.761719 81.328125 88.8125 80.753906 91.894531 C 80.179688 94.972656 79.738281 98.074219 79.421875 101.191406 C 79.109375 104.308594 78.921875 107.433594 78.871094 110.570312 C 78.816406 113.703125 78.894531 116.832031 79.101562 119.960938 C 79.308594 123.085938 79.648438 126.199219 80.117188 129.296875 C 80.585938 132.394531 81.179688 135.46875 81.90625 138.519531 C 82.632812 141.566406 83.480469 144.578125 84.457031 147.558594 C 85.433594 150.535156 86.535156 153.464844 87.757812 156.351562 C 88.976562 159.234375 90.320312 162.066406 91.777344 164.839844 C 93.234375 167.609375 94.804688 170.316406 96.492188 172.960938 C 98.175781 175.601562 99.96875 178.167969 101.867188 180.660156 C 103.765625 183.148438 105.765625 185.558594 107.863281 187.882812 C 109.964844 190.207031 112.15625 192.4375 114.445312 194.578125 C 116.730469 196.71875 119.101562 198.757812 121.5625 200.699219 C 124.019531 202.640625 126.550781 204.476562 129.164062 206.207031 C 131.773438 207.933594 134.449219 209.550781 137.195312 211.054688 C 139.941406 212.5625 142.746094 213.949219 145.609375 215.21875 C 148.46875 216.488281 151.378906 217.636719 154.335938 218.664062 C 157.292969 219.691406 160.289062 220.589844 163.324219 221.367188 C 166.355469 222.140625 169.414062 222.789062 172.503906 223.308594 C 175.589844 223.828125 178.691406 224.214844 181.8125 224.476562 C 184.933594 224.734375 188.058594 224.863281 191.1875 224.859375 L 191.1875 217.382812 C 184.128906 217.386719 177.140625 216.683594 170.222656 215.28125 Z M 170.222656 215.28125 " fill-opacity="1" fill-rule="nonzero"/></svg>