<svg id="Layer_1" data-name="Layer 1" xmlns="http://www.w3.org/2000/svg" viewBox="0 0 25.16 25"><title>reseller</title><path d="M12.42,1.26a11.17,11.17,0,0,1,5.73,1.62,12.2,12.2,0,0,1,3,2.52l-2.95-.1a.63.63,0,1,0,0,1.25l4.09.14a.62.62,0,0,0,.68-.14.64.64,0,0,0,.14-.68l-.14-4.09a.63.63,0,0,0-.64-.62.64.64,0,0,0-.62.65h0l.08,2.36A13.52,13.52,0,0,0,18.79,1.8,12.36,12.36,0,0,0,12.42,0,12.15,12.15,0,0,0,3.28,4.09,13,13,0,0,0-.08,12.5a.63.63,0,1,0,1.26,0,11.69,11.69,0,0,1,3-7.57A10.93,10.93,0,0,1,12.42,1.26Z" transform="translate(0.08)"/><path d="M24.45,11.87a.63.63,0,0,0-.63.63,11.69,11.69,0,0,1-3,7.57,10.93,10.93,0,0,1-8.21,3.67,11.17,11.17,0,0,1-5.73-1.62,12.2,12.2,0,0,1-3-2.52l3,.1a.63.63,0,0,0,.65-.61.64.64,0,0,0-.61-.65l-4.09-.13a.62.62,0,0,0-.68.14.64.64,0,0,0-.14.68l.14,4.09a.62.62,0,0,0,.64.61.63.63,0,0,0,.62-.64h0l-.08-2.36A13.82,13.82,0,0,0,6.21,23.2,12.36,12.36,0,0,0,12.58,25a12.15,12.15,0,0,0,9.14-4.09,13,13,0,0,0,3.36-8.41A.63.63,0,0,0,24.45,11.87Z" transform="translate(0.08)"/></svg>